<svg width="14" height="16" viewBox="0 0 14 16" fill="none" xmlns="http://www.w3.org/2000/svg">
<path d="M13.592 3.65803C13.4865 3.55273 13.3517 3.5 13.1875 3.5H10.375C10.3514 2.53883 10.0233 1.74201 9.39062 1.10938C8.75799 0.476738 7.96117 0.148555 7 0.125C6.03883 0.148555 5.24201 0.476738 4.60938 1.10938C3.97674 1.74201 3.64855 2.53883 3.625 3.5H0.8125C0.648145 3.5 0.51332 3.55273 0.408027 3.65803C0.302734 3.7635 0.25 3.89832 0.25 4.0625V15.3125C0.25 15.4769 0.302559 15.6117 0.408027 15.717C0.513496 15.8223 0.64832 15.875 0.8125 15.875H13.1875C13.3519 15.875 13.4867 15.8224 13.592 15.717C13.6973 15.6115 13.75 15.4767 13.75 15.3125V4.0625C13.75 3.89814 13.6974 3.76332 13.592 3.65803ZM5.40918 1.90918C5.83668 1.48133 6.36701 1.2616 7 1.25C7.63264 1.26195 8.16297 1.48168 8.59082 1.90918C9.01867 2.33668 9.2384 2.86701 9.25 3.5H4.75C4.76195 2.86736 4.98168 2.33703 5.40918 1.90918ZM12.625 14.75H1.375V4.625H3.625V6.875H4.75V4.625H9.25V6.875H10.375V4.625H12.625V14.75Z" fill="black"/>
</svg>
