<svg width="51" height="44" viewBox="0 0 51 44" fill="none" xmlns="http://www.w3.org/2000/svg">
<path d="M47.5 0.5H3.5C2.57174 0.5 1.6815 0.868749 1.02513 1.52513C0.368749 2.1815 0 3.07174 0 4V40C0 40.9283 0.368749 41.8185 1.02513 42.4749C1.6815 43.1312 2.57174 43.5 3.5 43.5H47.5C48.4283 43.5 49.3185 43.1312 49.9749 42.4749C50.6312 41.8185 51 40.9283 51 40V4C51 3.07174 50.6312 2.1815 49.9749 1.52513C49.3185 0.868749 48.4283 0.5 47.5 0.5ZM3.5 3.5H47.5C47.6326 3.5 47.7598 3.55268 47.8536 3.64645C47.9473 3.74021 48 3.86739 48 4V32.375L39.975 24.35C39.3154 23.6996 38.4263 23.335 37.5 23.335C36.5737 23.335 35.6846 23.6996 35.025 24.35L29.85 29.525C29.8055 29.5735 29.7514 29.6122 29.6912 29.6387C29.6309 29.6652 29.5658 29.6789 29.5 29.6789C29.4342 29.6789 29.3691 29.6652 29.3088 29.6387C29.2486 29.6122 29.1945 29.5735 29.15 29.525L17.975 18.35C17.3154 17.6996 16.4263 17.335 15.5 17.335C14.5737 17.335 13.6846 17.6996 13.025 18.35L3 28.375V4C3 3.86739 3.05268 3.74021 3.14645 3.64645C3.24021 3.55268 3.36739 3.5 3.5 3.5ZM47.5 40.5H3.5C3.36739 40.5 3.24021 40.4473 3.14645 40.3536C3.05268 40.2598 3 40.1326 3 40V32.625L15.15 20.475C15.1945 20.4265 15.2486 20.3878 15.3088 20.3613C15.3691 20.3348 15.4342 20.3211 15.5 20.3211C15.5658 20.3211 15.6309 20.3348 15.6912 20.3613C15.7514 20.3878 15.8055 20.4265 15.85 20.475L27.025 31.65C27.6846 32.3004 28.5737 32.665 29.5 32.665C30.4263 32.665 31.3154 32.3004 31.975 31.65L37.15 26.475C37.1945 26.4265 37.2486 26.3878 37.3088 26.3613C37.3691 26.3348 37.4342 26.3211 37.5 26.3211C37.5658 26.3211 37.6309 26.3348 37.6912 26.3613C37.7514 26.3878 37.8055 26.4265 37.85 26.475L48 36.625V40C48 40.1326 47.9473 40.2598 47.8536 40.3536C47.7598 40.4473 47.6326 40.5 47.5 40.5ZM30.725 16.775C30.4922 16.5422 30.3081 16.2653 30.1836 15.9606C30.0591 15.6558 29.9967 15.3292 30 15C30 14.337 30.2634 13.7011 30.7322 13.2322C31.2011 12.7634 31.837 12.5 32.5 12.5C33.163 12.5 33.7989 12.7634 34.2678 13.2322C34.7366 13.7011 35 14.337 35 15C35 15.663 34.7366 16.2989 34.2678 16.7678C33.7989 17.2366 33.163 17.5 32.5 17.5C32.1708 17.5033 31.8442 17.4409 31.5394 17.3164C31.2347 17.1919 30.9578 17.0078 30.725 16.775Z" fill="#003F62"/>
</svg>
