<svg width="24" height="24" viewBox="0 0 24 24" fill="none" xmlns="http://www.w3.org/2000/svg">
<path d="M8.69849 20.5252L8.71921 20.5142C8.70596 20.4892 8.69943 20.4611 8.70024 20.4328C8.70106 20.4045 8.70919 20.3768 8.72385 20.3526C8.73851 20.3284 8.7592 20.3083 8.7839 20.2944C8.80861 20.2806 8.83648 20.2733 8.86481 20.2734H8.86489H15.1358C15.1642 20.2734 15.192 20.2807 15.2166 20.2946C15.2413 20.3085 15.2619 20.3285 15.2765 20.3528C15.2911 20.377 15.2992 20.4046 15.3 20.4329C15.3008 20.4611 15.2943 20.4891 15.2811 20.5141C14.9622 21.1069 14.4888 21.6023 13.9111 21.9478C13.3334 22.2933 12.673 22.476 11.9999 22.4766C11.3268 22.4759 10.6665 22.2932 10.0889 21.9477C9.51133 21.6022 9.038 21.1068 8.71913 20.5141L8.69849 20.5252ZM8.69849 20.5252C9.01936 21.1216 9.49567 21.6201 10.0769 21.9678C10.6581 22.3155 11.3226 22.4994 11.9999 22.5L15.3018 20.5252C15.3169 20.4966 15.3244 20.4646 15.3234 20.4322C15.3225 20.3999 15.3133 20.3684 15.2966 20.3407C15.2799 20.313 15.2563 20.2901 15.2281 20.2742C15.2 20.2583 15.1682 20.25 15.1358 20.25H8.86489C8.83252 20.2499 8.80066 20.2582 8.77243 20.274C8.7442 20.2899 8.72055 20.3128 8.7038 20.3405C8.68704 20.3682 8.67774 20.3997 8.67681 20.4321C8.67588 20.4645 8.68335 20.4965 8.69849 20.5252ZM20.3814 15.7359L20.3814 15.7359C20.4169 15.7787 20.4532 15.8229 20.4899 15.8675C20.5299 15.9161 20.5703 15.9653 20.6106 16.0139C20.8087 16.2532 20.9341 16.5443 20.9719 16.8528C21.0096 17.1612 20.9582 17.474 20.8236 17.7541L20.8236 17.7541C20.5375 18.3522 19.9338 18.7252 19.2421 18.7252H4.76286C4.06782 18.7252 3.45995 18.3516 3.17482 17.7509L3.17479 17.7508C3.04079 17.4708 2.98982 17.1583 3.0279 16.8502C3.06598 16.5421 3.19151 16.2514 3.38966 16.0125L3.38979 16.0123C3.4579 15.9286 3.52493 15.8478 3.59095 15.7682C3.60028 15.7569 3.60959 15.7457 3.61888 15.7345L3.61888 15.7345L3.61904 15.7343C4.13494 15.1116 4.55123 14.6091 4.83752 13.8194C5.12365 13.0301 5.27943 11.9555 5.27943 10.1883C5.27943 8.58822 5.5999 7.2694 6.24849 6.21543C6.89694 5.16167 7.87452 4.3708 9.1921 3.82839L9.19216 3.82855L9.19461 3.82718C9.21115 3.81793 9.22604 3.80599 9.23864 3.79184L9.24046 3.79346L9.2436 3.78296C9.64851 2.42845 10.7548 1.52344 11.9999 1.52344C13.245 1.52344 14.3517 2.42845 14.7567 3.78436L14.7545 3.78499L14.7613 3.7929C14.774 3.80768 14.7892 3.82009 14.8062 3.82954L14.8061 3.82969L14.8086 3.83074C15.938 4.29537 16.7936 4.92352 17.4263 5.7508L17.4263 5.75082C18.2844 6.87067 18.7208 8.36521 18.7208 10.1897C18.7208 11.9563 18.8768 13.0304 19.1631 13.8197C19.4491 14.6082 19.8645 15.1107 20.3789 15.7329L20.3814 15.7359Z" fill="#F6FAF9" stroke="#232321" stroke-width="0.046875"/>
</svg>
